<svg width="22" height="20" viewBox="0 0 22 20" fill="none" xmlns="http://www.w3.org/2000/svg">
<path d="M20.9926 11.19C21.3326 10.75 21.2426 10.12 20.8026 9.79L11.2026 2.46C10.8426 2.19 10.3426 2.19 9.99259 2.46L4.60259 6.58V6C4.60259 5.45 4.15259 5 3.60259 5C3.05259 5 2.60259 5.45 2.60259 6V8.11L0.392592 9.79C-0.0474076 10.12 -0.127408 10.75 0.202592 11.19C0.542592 11.63 1.16259 11.71 1.60259 11.38L2.60259 10.62V19C2.60259 19.55 3.05259 20 3.60259 20H9.60259V15C9.60259 14.45 10.0526 14 10.6026 14C11.1526 14 11.6026 14.45 11.6026 15V20H17.6026C18.1526 20 18.6026 19.55 18.6026 19V10.62L19.5926 11.38C20.0326 11.72 20.6626 11.63 20.9926 11.19ZM3.87259 4C3.13259 4 2.61259 3.2 2.97259 2.55C3.49259 1.62 4.47259 1 5.60259 1C5.98259 1 6.32259 0.78 6.49259 0.47C6.64259 0.16 6.99259 0 7.33259 0C8.07259 0 8.59259 0.8 8.23259 1.45C7.71259 2.38 6.73259 3 5.60259 3C5.22259 3 4.88259 3.22 4.71259 3.53C4.56259 3.84 4.21259 4 3.87259 4Z" fill="#878787"/>
</svg>
